{
	"asset":{
		"generator":"Khronos glTF Blender I/O v4.5.48",
		"version":"2.0"
	},
	"scene":0,
	"scenes":[
		{
			"name":"BlockOut",
			"nodes":[
				0,
				1,
				2,
				3,
				4,
				5,
				6,
				7,
				8,
				9,
				10,
				11,
				12,
				13,
				14,
				15
			]
		}
	],
	"nodes":[
		{
			"mesh":0,
			"name":"Cylinder.026-col",
			"scale":[
				5.987292766571045,
				104.93427276611328,
				5.987292766571045
			],
			"translation":[
				0,
				-0.36184513568878174,
				0
			]
		},
		{
			"mesh":1,
			"name":"Cylinder.026-col.001",
			"rotation":[
				0,
				1,
				0,
				0
			],
			"scale":[
				-9.137859344482422,
				-4.704938888549805,
				-9.137859344482422
			],
			"translation":[
				0,
				-44.809104919433594,
				1.129842758178711
			]
		},
		{
			"mesh":2,
			"name":"Cylinder.026-col.002",
			"rotation":[
				0,
				1,
				0,
				0
			],
			"scale":[
				-13.128530502319336,
				-9.40987777709961,
				-13.128530502319336
			],
			"translation":[
				0,
				106.34259033203125,
				0
			]
		},
		{
			"mesh":3,
			"name":"Cylinder.026-col.003",
			"rotation":[
				0.13232961297035217,
				-0.9765455722808838,
				0.1696297824382782,
				0.00857667624950409
			],
			"scale":[
				-5.987292766571045,
				-28.23103141784668,
				-5.987292766571045
			],
			"translation":[
				25.99808120727539,
				-88.3126449584961,
				40.81674575805664
			]
		},
		{
			"mesh":4,
			"name":"Icosphere",
			"scale":[
				4.251944541931152,
				4.251944541931152,
				4.251944541931152
			],
			"translation":[
				33.651126861572266,
				-115.01152801513672,
				50.71982955932617
			]
		},
		{
			"name":"Lattice-noimp",
			"scale":[
				39.537593841552734,
				39.537593841552734,
				39.537593841552734
			],
			"translation":[
				0,
				-48.24980163574219,
				2.259685516357422
			]
		},
		{
			"mesh":5,
			"name":"SmallIslands-col",
			"rotation":[
				-0.1956270933151245,
				0.3560045659542084,
				0.5850571990013123,
				0.7019250988960266
			],
			"scale":[
				-5.152700901031494,
				-4.704939365386963,
				-5.152700901031494
			],
			"translation":[
				42.724021911621094,
				-11.10739517211914,
				-6.76493501663208
			]
		},
		{
			"mesh":6,
			"name":"SmallIslands-col.001",
			"rotation":[
				0.4435703456401825,
				0.5994946360588074,
				-0.5210584402084351,
				0.4151502847671509
			],
			"scale":[
				-5.152700901031494,
				-4.704938888549805,
				-5.152700901031494
			],
			"translation":[
				-43.09114456176758,
				-2.2023496627807617,
				11.523179054260254
			]
		},
		{
			"mesh":7,
			"name":"SmallIslands-col.002",
			"rotation":[
				0.7335143089294434,
				0.23022012412548065,
				-0.5439925193786621,
				0.3361957371234894
			],
			"scale":[
				-5.152701377868652,
				-4.704938888549805,
				-5.152700901031494
			],
			"translation":[
				-31.005708694458008,
				30.300796508789062,
				-10.723248481750488
			]
		},
		{
			"mesh":8,
			"name":"SmallIslands-col.003",
			"rotation":[
				-0.10466963052749634,
				0.004774772096425295,
				0.8313912749290466,
				0.5457199215888977
			],
			"scale":[
				-5.152700901031494,
				-4.704938888549805,
				-5.152700901031494
			],
			"translation":[
				40.67279052734375,
				17.977733612060547,
				4.1238017082214355
			]
		},
		{
			"mesh":9,
			"name":"SmallIslands-col.004",
			"rotation":[
				-0.30010151863098145,
				-0.6053361296653748,
				0.5390610098838806,
				0.5029120445251465
			],
			"scale":[
				-5.152700901031494,
				-4.704938888549805,
				-5.152701377868652
			],
			"translation":[
				8.581716537475586,
				-10.435890197753906,
				42.566734313964844
			]
		},
		{
			"mesh":10,
			"name":"SmallIslands-col.005",
			"rotation":[
				0.8266363143920898,
				0.2631453275680542,
				0.4326675832271576,
				0.24540935456752777
			],
			"scale":[
				-5.152700901031494,
				-4.704938888549805,
				-5.152700424194336
			],
			"translation":[
				-10.48222541809082,
				33.205387115478516,
				-27.964374542236328
			]
		},
		{
			"mesh":11,
			"name":"SmallIslands-col.006",
			"rotation":[
				-0.2623593509197235,
				-0.8106354475021362,
				0.3382653594017029,
				0.39951759576797485
			],
			"scale":[
				-5.152700901031494,
				-4.704938888549805,
				-5.152700901031494
			],
			"translation":[
				-6.3989033699035645,
				-28.072622299194336,
				34.138885498046875
			]
		},
		{
			"mesh":12,
			"name":"SmallIslands-col.007",
			"rotation":[
				-0.385436475276947,
				-0.21941639482975006,
				0.8365240693092346,
				0.321749746799469
			],
			"scale":[
				-5.152700901031494,
				-4.704938888549805,
				-5.152700901031494
			],
			"translation":[
				16.985658645629883,
				31.18558120727539,
				27.08186912536621
			]
		},
		{
			"mesh":13,
			"name":"SmallIslands-col.008",
			"rotation":[
				0.7025606632232666,
				-0.08058277517557144,
				0.4936882257461548,
				0.5061491131782532
			],
			"scale":[
				-5.152700424194336,
				-4.704938888549805,
				-5.152700901031494
			],
			"translation":[
				26.98311424255371,
				21.698814392089844,
				-28.2055606842041
			]
		},
		{
			"mesh":14,
			"name":"SmallIslands-col.009",
			"rotation":[
				0.41682857275009155,
				-0.09412185847759247,
				0.0190040972083807,
				0.9038992524147034
			],
			"scale":[
				-5.152700424194336,
				-4.704938888549805,
				-5.152700901031494
			],
			"translation":[
				5.136367321014404,
				-28.623184204101562,
				-33.89411163330078
			]
		}
	],
	"materials":[
		{
			"doubleSided":true,
			"name":"color_palette",
			"pbrMetallicRoughness":{
				"baseColorTexture":{
					"index":0
				},
				"metallicFactor":0,
				"roughnessFactor":0.5
			}
		}
	],
	"meshes":[
		{
			"name":"Cylinder",
			"primitives":[
				{
					"attributes":{
						"POSITION":0,
						"NORMAL":1,
						"TEXCOORD_0":2
					},
					"indices":3,
					"material":0
				}
			]
		},
		{
			"name":"Cylinder.027",
			"primitives":[
				{
					"attributes":{
						"POSITION":4,
						"NORMAL":5,
						"TEXCOORD_0":6
					},
					"indices":7,
					"material":0
				}
			]
		},
		{
			"name":"Cylinder.028",
			"primitives":[
				{
					"attributes":{
						"POSITION":8,
						"NORMAL":9,
						"TEXCOORD_0":10
					},
					"indices":3,
					"material":0
				}
			]
		},
		{
			"name":"Cylinder.029",
			"primitives":[
				{
					"attributes":{
						"POSITION":11,
						"NORMAL":12,
						"TEXCOORD_0":13
					},
					"indices":14,
					"material":0
				}
			]
		},
		{
			"name":"Icosphere.001",
			"primitives":[
				{
					"attributes":{
						"POSITION":15,
						"NORMAL":16,
						"TEXCOORD_0":17
					},
					"indices":18,
					"material":0
				}
			]
		},
		{
			"name":"Cylinder.002",
			"primitives":[
				{
					"attributes":{
						"POSITION":19,
						"NORMAL":20,
						"TEXCOORD_0":21
					},
					"indices":7,
					"material":0
				}
			]
		},
		{
			"name":"Cylinder.004",
			"primitives":[
				{
					"attributes":{
						"POSITION":22,
						"NORMAL":23,
						"TEXCOORD_0":24
					},
					"indices":7,
					"material":0
				}
			]
		},
		{
			"name":"Cylinder.005",
			"primitives":[
				{
					"attributes":{
						"POSITION":25,
						"NORMAL":26,
						"TEXCOORD_0":27
					},
					"indices":7,
					"material":0
				}
			]
		},
		{
			"name":"Cylinder.006",
			"primitives":[
				{
					"attributes":{
						"POSITION":28,
						"NORMAL":29,
						"TEXCOORD_0":30
					},
					"indices":7,
					"material":0
				}
			]
		},
		{
			"name":"Cylinder.007",
			"primitives":[
				{
					"attributes":{
						"POSITION":31,
						"NORMAL":32,
						"TEXCOORD_0":33
					},
					"indices":7,
					"material":0
				}
			]
		},
		{
			"name":"Cylinder.008",
			"primitives":[
				{
					"attributes":{
						"POSITION":34,
						"NORMAL":35,
						"TEXCOORD_0":36
					},
					"indices":7,
					"material":0
				}
			]
		},
		{
			"name":"Cylinder.009",
			"primitives":[
				{
					"attributes":{
						"POSITION":37,
						"NORMAL":38,
						"TEXCOORD_0":39
					},
					"indices":7,
					"material":0
				}
			]
		},
		{
			"name":"Cylinder.010",
			"primitives":[
				{
					"attributes":{
						"POSITION":40,
						"NORMAL":41,
						"TEXCOORD_0":42
					},
					"indices":7,
					"material":0
				}
			]
		},
		{
			"name":"Cylinder.011",
			"primitives":[
				{
					"attributes":{
						"POSITION":43,
						"NORMAL":44,
						"TEXCOORD_0":45
					},
					"indices":7,
					"material":0
				}
			]
		},
		{
			"name":"Cylinder.012",
			"primitives":[
				{
					"attributes":{
						"POSITION":46,
						"NORMAL":47,
						"TEXCOORD_0":48
					},
					"indices":7,
					"material":0
				}
			]
		}
	],
	"textures":[
		{
			"sampler":0,
			"source":0
		}
	],
	"images":[
		{
			"mimeType":"image/png",
			"name":"color_palette.png",
			"uri":"../textures/color_palette.png"
		}
	],
	"accessors":[
		{
			"bufferView":0,
			"componentType":5126,
			"count":192,
			"max":[
				1,
				1,
				1
			],
			"min":[
				-1,
				-0.9795541763305664,
				-1
			],
			"type":"VEC3"
		},
		{
			"bufferView":1,
			"componentType":5126,
			"count":192,
			"type":"VEC3"
		},
		{
			"bufferView":2,
			"componentType":5126,
			"count":192,
			"type":"VEC2"
		},
		{
			"bufferView":3,
			"componentType":5123,
			"count":372,
			"type":"SCALAR"
		},
		{
			"bufferView":4,
			"componentType":5126,
			"count":177,
			"max":[
				2.2939817905426025,
				12.405266761779785,
				2.406921148300171
			],
			"min":[
				-2.294037103652954,
				1.4904118776321411,
				-2.169691324234009
			],
			"type":"VEC3"
		},
		{
			"bufferView":5,
			"componentType":5126,
			"count":177,
			"type":"VEC3"
		},
		{
			"bufferView":6,
			"componentType":5126,
			"count":177,
			"type":"VEC2"
		},
		{
			"bufferView":7,
			"componentType":5123,
			"count":1050,
			"type":"SCALAR"
		},
		{
			"bufferView":8,
			"componentType":5126,
			"count":192,
			"max":[
				1.400916576385498,
				3.969615936279297,
				1.400916576385498
			],
			"min":[
				-1.400916576385498,
				-3.3004326820373535,
				-1.400916576385498
			],
			"type":"VEC3"
		},
		{
			"bufferView":9,
			"componentType":5126,
			"count":192,
			"type":"VEC3"
		},
		{
			"bufferView":10,
			"componentType":5126,
			"count":192,
			"type":"VEC2"
		},
		{
			"bufferView":11,
			"componentType":5126,
			"count":128,
			"max":[
				1,
				1.0000001192092896,
				1
			],
			"min":[
				-1,
				-1,
				-1
			],
			"type":"VEC3"
		},
		{
			"bufferView":12,
			"componentType":5126,
			"count":128,
			"type":"VEC3"
		},
		{
			"bufferView":13,
			"componentType":5126,
			"count":128,
			"type":"VEC2"
		},
		{
			"bufferView":14,
			"componentType":5123,
			"count":372,
			"type":"SCALAR"
		},
		{
			"bufferView":15,
			"componentType":5126,
			"count":362,
			"max":[
				0.9510578513145447,
				1,
				0.9999999403953552
			],
			"min":[
				-0.9510578513145447,
				-1,
				-0.9999999403953552
			],
			"type":"VEC3"
		},
		{
			"bufferView":16,
			"componentType":5126,
			"count":362,
			"type":"VEC3"
		},
		{
			"bufferView":17,
			"componentType":5126,
			"count":362,
			"type":"VEC2"
		},
		{
			"bufferView":18,
			"componentType":5123,
			"count":2160,
			"type":"SCALAR"
		},
		{
			"bufferView":19,
			"componentType":5126,
			"count":177,
			"max":[
				2.2939817905426025,
				12.405266761779785,
				2.406921148300171
			],
			"min":[
				-2.294037103652954,
				1.4904118776321411,
				-2.169691324234009
			],
			"type":"VEC3"
		},
		{
			"bufferView":20,
			"componentType":5126,
			"count":177,
			"type":"VEC3"
		},
		{
			"bufferView":21,
			"componentType":5126,
			"count":177,
			"type":"VEC2"
		},
		{
			"bufferView":22,
			"componentType":5126,
			"count":177,
			"max":[
				2.2939817905426025,
				12.405266761779785,
				2.406921148300171
			],
			"min":[
				-2.294037103652954,
				1.4904118776321411,
				-2.169691324234009
			],
			"type":"VEC3"
		},
		{
			"bufferView":23,
			"componentType":5126,
			"count":177,
			"type":"VEC3"
		},
		{
			"bufferView":24,
			"componentType":5126,
			"count":177,
			"type":"VEC2"
		},
		{
			"bufferView":25,
			"componentType":5126,
			"count":177,
			"max":[
				2.2939817905426025,
				12.405266761779785,
				2.406921148300171
			],
			"min":[
				-2.294037103652954,
				1.4904118776321411,
				-2.169691324234009
			],
			"type":"VEC3"
		},
		{
			"bufferView":26,
			"componentType":5126,
			"count":177,
			"type":"VEC3"
		},
		{
			"bufferView":27,
			"componentType":5126,
			"count":177,
			"type":"VEC2"
		},
		{
			"bufferView":28,
			"componentType":5126,
			"count":177,
			"max":[
				2.2939817905426025,
				12.405266761779785,
				2.406921148300171
			],
			"min":[
				-2.294037103652954,
				1.4904118776321411,
				-2.169691324234009
			],
			"type":"VEC3"
		},
		{
			"bufferView":29,
			"componentType":5126,
			"count":177,
			"type":"VEC3"
		},
		{
			"bufferView":30,
			"componentType":5126,
			"count":177,
			"type":"VEC2"
		},
		{
			"bufferView":31,
			"componentType":5126,
			"count":177,
			"max":[
				2.2939817905426025,
				12.405266761779785,
				2.406921148300171
			],
			"min":[
				-2.294037103652954,
				1.4904118776321411,
				-2.169691324234009
			],
			"type":"VEC3"
		},
		{
			"bufferView":32,
			"componentType":5126,
			"count":177,
			"type":"VEC3"
		},
		{
			"bufferView":33,
			"componentType":5126,
			"count":177,
			"type":"VEC2"
		},
		{
			"bufferView":34,
			"componentType":5126,
			"count":177,
			"max":[
				2.2939817905426025,
				12.405266761779785,
				2.406921148300171
			],
			"min":[
				-2.294037103652954,
				1.4904118776321411,
				-2.169691324234009
			],
			"type":"VEC3"
		},
		{
			"bufferView":35,
			"componentType":5126,
			"count":177,
			"type":"VEC3"
		},
		{
			"bufferView":36,
			"componentType":5126,
			"count":177,
			"type":"VEC2"
		},
		{
			"bufferView":37,
			"componentType":5126,
			"count":177,
			"max":[
				2.2939817905426025,
				12.405266761779785,
				2.406921148300171
			],
			"min":[
				-2.294037103652954,
				1.4904118776321411,
				-2.169691324234009
			],
			"type":"VEC3"
		},
		{
			"bufferView":38,
			"componentType":5126,
			"count":177,
			"type":"VEC3"
		},
		{
			"bufferView":39,
			"componentType":5126,
			"count":177,
			"type":"VEC2"
		},
		{
			"bufferView":40,
			"componentType":5126,
			"count":177,
			"max":[
				2.2939817905426025,
				12.405266761779785,
				2.406921148300171
			],
			"min":[
				-2.294037103652954,
				1.4904118776321411,
				-2.169691324234009
			],
			"type":"VEC3"
		},
		{
			"bufferView":41,
			"componentType":5126,
			"count":177,
			"type":"VEC3"
		},
		{
			"bufferView":42,
			"componentType":5126,
			"count":177,
			"type":"VEC2"
		},
		{
			"bufferView":43,
			"componentType":5126,
			"count":177,
			"max":[
				2.2939817905426025,
				12.405266761779785,
				2.406921148300171
			],
			"min":[
				-2.294037103652954,
				1.4904118776321411,
				-2.169691324234009
			],
			"type":"VEC3"
		},
		{
			"bufferView":44,
			"componentType":5126,
			"count":177,
			"type":"VEC3"
		},
		{
			"bufferView":45,
			"componentType":5126,
			"count":177,
			"type":"VEC2"
		},
		{
			"bufferView":46,
			"componentType":5126,
			"count":177,
			"max":[
				2.2939817905426025,
				12.405266761779785,
				2.406921148300171
			],
			"min":[
				-2.294037103652954,
				1.4904118776321411,
				-2.169691324234009
			],
			"type":"VEC3"
		},
		{
			"bufferView":47,
			"componentType":5126,
			"count":177,
			"type":"VEC3"
		},
		{
			"bufferView":48,
			"componentType":5126,
			"count":177,
			"type":"VEC2"
		}
	],
	"bufferViews":[
		{
			"buffer":0,
			"byteLength":2304,
			"byteOffset":0,
			"target":34962
		},
		{
			"buffer":0,
			"byteLength":2304,
			"byteOffset":2304,
			"target":34962
		},
		{
			"buffer":0,
			"byteLength":1536,
			"byteOffset":4608,
			"target":34962
		},
		{
			"buffer":0,
			"byteLength":744,
			"byteOffset":6144,
			"target":34963
		},
		{
			"buffer":0,
			"byteLength":2124,
			"byteOffset":6888,
			"target":34962
		},
		{
			"buffer":0,
			"byteLength":2124,
			"byteOffset":9012,
			"target":34962
		},
		{
			"buffer":0,
			"byteLength":1416,
			"byteOffset":11136,
			"target":34962
		},
		{
			"buffer":0,
			"byteLength":2100,
			"byteOffset":12552,
			"target":34963
		},
		{
			"buffer":0,
			"byteLength":2304,
			"byteOffset":14652,
			"target":34962
		},
		{
			"buffer":0,
			"byteLength":2304,
			"byteOffset":16956,
			"target":34962
		},
		{
			"buffer":0,
			"byteLength":1536,
			"byteOffset":19260,
			"target":34962
		},
		{
			"buffer":0,
			"byteLength":1536,
			"byteOffset":20796,
			"target":34962
		},
		{
			"buffer":0,
			"byteLength":1536,
			"byteOffset":22332,
			"target":34962
		},
		{
			"buffer":0,
			"byteLength":1024,
			"byteOffset":23868,
			"target":34962
		},
		{
			"buffer":0,
			"byteLength":744,
			"byteOffset":24892,
			"target":34963
		},
		{
			"buffer":0,
			"byteLength":4344,
			"byteOffset":25636,
			"target":34962
		},
		{
			"buffer":0,
			"byteLength":4344,
			"byteOffset":29980,
			"target":34962
		},
		{
			"buffer":0,
			"byteLength":2896,
			"byteOffset":34324,
			"target":34962
		},
		{
			"buffer":0,
			"byteLength":4320,
			"byteOffset":37220,
			"target":34963
		},
		{
			"buffer":0,
			"byteLength":2124,
			"byteOffset":41540,
			"target":34962
		},
		{
			"buffer":0,
			"byteLength":2124,
			"byteOffset":43664,
			"target":34962
		},
		{
			"buffer":0,
			"byteLength":1416,
			"byteOffset":45788,
			"target":34962
		},
		{
			"buffer":0,
			"byteLength":2124,
			"byteOffset":47204,
			"target":34962
		},
		{
			"buffer":0,
			"byteLength":2124,
			"byteOffset":49328,
			"target":34962
		},
		{
			"buffer":0,
			"byteLength":1416,
			"byteOffset":51452,
			"target":34962
		},
		{
			"buffer":0,
			"byteLength":2124,
			"byteOffset":52868,
			"target":34962
		},
		{
			"buffer":0,
			"byteLength":2124,
			"byteOffset":54992,
			"target":34962
		},
		{
			"buffer":0,
			"byteLength":1416,
			"byteOffset":57116,
			"target":34962
		},
		{
			"buffer":0,
			"byteLength":2124,
			"byteOffset":58532,
			"target":34962
		},
		{
			"buffer":0,
			"byteLength":2124,
			"byteOffset":60656,
			"target":34962
		},
		{
			"buffer":0,
			"byteLength":1416,
			"byteOffset":62780,
			"target":34962
		},
		{
			"buffer":0,
			"byteLength":2124,
			"byteOffset":64196,
			"target":34962
		},
		{
			"buffer":0,
			"byteLength":2124,
			"byteOffset":66320,
			"target":34962
		},
		{
			"buffer":0,
			"byteLength":1416,
			"byteOffset":68444,
			"target":34962
		},
		{
			"buffer":0,
			"byteLength":2124,
			"byteOffset":69860,
			"target":34962
		},
		{
			"buffer":0,
			"byteLength":2124,
			"byteOffset":71984,
			"target":34962
		},
		{
			"buffer":0,
			"byteLength":1416,
			"byteOffset":74108,
			"target":34962
		},
		{
			"buffer":0,
			"byteLength":2124,
			"byteOffset":75524,
			"target":34962
		},
		{
			"buffer":0,
			"byteLength":2124,
			"byteOffset":77648,
			"target":34962
		},
		{
			"buffer":0,
			"byteLength":1416,
			"byteOffset":79772,
			"target":34962
		},
		{
			"buffer":0,
			"byteLength":2124,
			"byteOffset":81188,
			"target":34962
		},
		{
			"buffer":0,
			"byteLength":2124,
			"byteOffset":83312,
			"target":34962
		},
		{
			"buffer":0,
			"byteLength":1416,
			"byteOffset":85436,
			"target":34962
		},
		{
			"buffer":0,
			"byteLength":2124,
			"byteOffset":86852,
			"target":34962
		},
		{
			"buffer":0,
			"byteLength":2124,
			"byteOffset":88976,
			"target":34962
		},
		{
			"buffer":0,
			"byteLength":1416,
			"byteOffset":91100,
			"target":34962
		},
		{
			"buffer":0,
			"byteLength":2124,
			"byteOffset":92516,
			"target":34962
		},
		{
			"buffer":0,
			"byteLength":2124,
			"byteOffset":94640,
			"target":34962
		},
		{
			"buffer":0,
			"byteLength":1416,
			"byteOffset":96764,
			"target":34962
		}
	],
	"samplers":[
		{
			"magFilter":9729,
			"minFilter":9987
		}
	],
	"buffers":[
		{
			"byteLength":98180,
			"uri":"BlockOut.bin"
		}
	]
}
