{
	"asset":{
		"generator":"Khronos glTF Blender I/O v4.5.48",
		"version":"2.0"
	},
	"scene":0,
	"scenes":[
		{
			"name":"FarmIsland",
			"nodes":[
				0,
				1,
				2,
				3,
				4,
				5,
				6,
				7,
				8,
				9,
				10,
				11,
				12,
				13,
				14,
				15
			]
		}
	],
	"nodes":[
		{
			"mesh":0,
			"name":"Cube-col",
			"rotation":[
				-0.7071068286895752,
				0,
				0,
				0.7071068286895752
			],
			"scale":[
				0.44731462001800537,
				0.44731462001800537,
				0.44731462001800537
			],
			"translation":[
				-3.3990883827209473,
				-5.560817718505859,
				-105.70165252685547
			]
		},
		{
			"mesh":1,
			"name":"Cylinder.016",
			"rotation":[
				-0.7071068286895752,
				0,
				0,
				0.7071068286895752
			],
			"scale":[
				0.4877474308013916,
				18.076885223388672,
				0.4877474308013916
			],
			"translation":[
				-13.562385559082031,
				7.943122863769531,
				-91.59623718261719
			]
		},
		{
			"mesh":2,
			"name":"Cylinder.017",
			"rotation":[
				-0.7071068286895752,
				0,
				0,
				0.7071068286895752
			],
			"scale":[
				0.4877474308013916,
				18.076885223388672,
				0.4877474308013916
			],
			"translation":[
				-5.524837493896484,
				7.855152130126953,
				-91.59623718261719
			]
		},
		{
			"mesh":3,
			"name":"Cylinder.018",
			"rotation":[
				-0.7071068286895752,
				0,
				0,
				0.7071068286895752
			],
			"scale":[
				0.4877474308013916,
				18.076885223388672,
				0.4877474308013916
			],
			"translation":[
				-11.816261291503906,
				4.5649871826171875,
				-91.59623718261719
			]
		},
		{
			"mesh":4,
			"name":"Cylinder.019",
			"rotation":[
				-0.7071068286895752,
				0,
				0,
				0.7071068286895752
			],
			"scale":[
				0.4877474308013916,
				18.076885223388672,
				0.4877474308013916
			],
			"translation":[
				-5.2203850746154785,
				11.362113952636719,
				-91.59623718261719
			]
		},
		{
			"mesh":5,
			"name":"Cylinder.020",
			"rotation":[
				-0.6879741549491882,
				0.16337577998638153,
				-0.16337579488754272,
				0.6879741549491882
			],
			"scale":[
				0.4877474308013916,
				18.076885223388672,
				0.4877474308013916
			],
			"translation":[
				3.427159309387207,
				4.889495849609375,
				-91.59623718261719
			]
		},
		{
			"mesh":6,
			"name":"Cylinder.021",
			"rotation":[
				-0.6879741549491882,
				0.16337577998638153,
				-0.16337579488754272,
				0.6879741549491882
			],
			"scale":[
				0.4877474308013916,
				18.076885223388672,
				0.4877474308013916
			],
			"translation":[
				4.6069464683532715,
				8.005908966064453,
				-91.59623718261719
			]
		},
		{
			"mesh":7,
			"name":"Cylinder.022",
			"rotation":[
				-0.7071068286895752,
				0,
				0,
				0.7071068286895752
			],
			"scale":[
				0.4877474308013916,
				18.076885223388672,
				0.4877474308013916
			],
			"translation":[
				-12.35352897644043,
				-3.4403228759765625,
				-85.83855438232422
			]
		},
		{
			"mesh":8,
			"name":"Cylinder.023",
			"rotation":[
				-0.7071068286895752,
				0,
				0,
				0.7071068286895752
			],
			"scale":[
				0.4877474308013916,
				18.076885223388672,
				0.4877474308013916
			],
			"translation":[
				-16.812862396240234,
				-3.628368377685547,
				-85.83855438232422
			]
		},
		{
			"mesh":9,
			"name":"Cylinder.024",
			"rotation":[
				-0.7071068286895752,
				0,
				0,
				0.7071068286895752
			],
			"scale":[
				0.4877474308013916,
				18.076885223388672,
				0.4877474308013916
			],
			"translation":[
				-12.541574478149414,
				-12.788806915283203,
				-85.83855438232422
			]
		},
		{
			"mesh":10,
			"name":"Cylinder.025",
			"rotation":[
				-0.7071068286895752,
				0,
				0,
				0.7071068286895752
			],
			"scale":[
				0.4877474308013916,
				18.076885223388672,
				0.4877474308013916
			],
			"translation":[
				-16.839725494384766,
				-13.057441711425781,
				-85.83855438232422
			]
		},
		{
			"mesh":11,
			"name":"Cube.007-col",
			"rotation":[
				-0.6973947286605835,
				0.11679284274578094,
				-0.11679282784461975,
				0.6973947882652283
			],
			"scale":[
				9.282068252563477,
				0.2512727379798889,
				2.7411625385284424
			],
			"translation":[
				-3.719567060470581,
				10.414054870605469,
				-108.59284973144531
			]
		},
		{
			"mesh":12,
			"name":"Cube.007-col.001",
			"rotation":[
				-0.7070835828781128,
				-0.00573315704241395,
				-0.707083523273468,
				0.005733127240091562
			],
			"scale":[
				0.1250000298023224,
				1.9815053939819336,
				1.282746434211731
			],
			"translation":[
				2.7466511726379395,
				2.4480209350585938,
				-113.4742660522461
			]
		},
		{
			"mesh":13,
			"name":"FarmIslandLevel1Ref-noimp",
			"scale":[
				120.0033187866211,
				120.0033187866211,
				120.0033187866211
			]
		},
		{
			"mesh":14,
			"name":"FarmIslandLevel2Ref-noimp.001",
			"scale":[
				143.53956604003906,
				143.53956604003906,
				143.53956604003906
			]
		},
		{
			"mesh":15,
			"name":"Orig.FarmIslandLevel1-noimp",
			"rotation":[
				-0.7071068286895752,
				0,
				0,
				0.7071068286895752
			],
			"scale":[
				23.21259117126465,
				23.21259117126465,
				23.21259117126465
			],
			"translation":[
				-4.010255336761475,
				-11.959663391113281,
				-118.13427734375
			]
		}
	],
	"materials":[
		{
			"doubleSided":true,
			"name":"color_palette",
			"pbrMetallicRoughness":{
				"baseColorTexture":{
					"index":0
				},
				"metallicFactor":0,
				"roughnessFactor":0.5
			}
		}
	],
	"meshes":[
		{
			"name":"Cube.005",
			"primitives":[
				{
					"attributes":{
						"POSITION":0,
						"NORMAL":1,
						"TEXCOORD_0":2
					},
					"indices":3,
					"material":0
				}
			]
		},
		{
			"name":"Cylinder.017",
			"primitives":[
				{
					"attributes":{
						"POSITION":4,
						"NORMAL":5,
						"TEXCOORD_0":6
					},
					"indices":7
				}
			]
		},
		{
			"name":"Cylinder.018",
			"primitives":[
				{
					"attributes":{
						"POSITION":8,
						"NORMAL":9,
						"TEXCOORD_0":10
					},
					"indices":7
				}
			]
		},
		{
			"name":"Cylinder.019",
			"primitives":[
				{
					"attributes":{
						"POSITION":11,
						"NORMAL":12,
						"TEXCOORD_0":13
					},
					"indices":7
				}
			]
		},
		{
			"name":"Cylinder.020",
			"primitives":[
				{
					"attributes":{
						"POSITION":14,
						"NORMAL":15,
						"TEXCOORD_0":16
					},
					"indices":7
				}
			]
		},
		{
			"name":"Cylinder.021",
			"primitives":[
				{
					"attributes":{
						"POSITION":17,
						"NORMAL":18,
						"TEXCOORD_0":19
					},
					"indices":7
				}
			]
		},
		{
			"name":"Cylinder.022",
			"primitives":[
				{
					"attributes":{
						"POSITION":20,
						"NORMAL":21,
						"TEXCOORD_0":22
					},
					"indices":7
				}
			]
		},
		{
			"name":"Cylinder.023",
			"primitives":[
				{
					"attributes":{
						"POSITION":23,
						"NORMAL":24,
						"TEXCOORD_0":25
					},
					"indices":7
				}
			]
		},
		{
			"name":"Cylinder.024",
			"primitives":[
				{
					"attributes":{
						"POSITION":26,
						"NORMAL":27,
						"TEXCOORD_0":28
					},
					"indices":7
				}
			]
		},
		{
			"name":"Cylinder.025",
			"primitives":[
				{
					"attributes":{
						"POSITION":29,
						"NORMAL":30,
						"TEXCOORD_0":31
					},
					"indices":7
				}
			]
		},
		{
			"name":"Cylinder.026",
			"primitives":[
				{
					"attributes":{
						"POSITION":32,
						"NORMAL":33,
						"TEXCOORD_0":34
					},
					"indices":7
				}
			]
		},
		{
			"name":"Cube.009",
			"primitives":[
				{
					"attributes":{
						"POSITION":35,
						"NORMAL":36,
						"TEXCOORD_0":37
					},
					"indices":38
				}
			]
		},
		{
			"name":"Cube.010",
			"primitives":[
				{
					"attributes":{
						"POSITION":39,
						"NORMAL":40,
						"TEXCOORD_0":41
					},
					"indices":42
				}
			]
		},
		{
			"name":"Mesh",
			"primitives":[
				{
					"attributes":{
						"POSITION":43,
						"NORMAL":44,
						"TEXCOORD_0":45
					},
					"indices":46
				}
			]
		},
		{
			"name":"Mesh",
			"primitives":[
				{
					"attributes":{
						"POSITION":47,
						"NORMAL":48,
						"TEXCOORD_0":49
					},
					"indices":46
				}
			]
		},
		{
			"name":"Plane",
			"primitives":[
				{
					"attributes":{
						"POSITION":50,
						"NORMAL":51,
						"TEXCOORD_0":52
					},
					"indices":53
				}
			]
		}
	],
	"textures":[
		{
			"sampler":0,
			"source":0
		}
	],
	"images":[
		{
			"mimeType":"image/png",
			"name":"color_palette.png",
			"uri":"../textures/color_palette.png"
		}
	],
	"accessors":[
		{
			"bufferView":0,
			"componentType":5126,
			"count":286,
			"max":[
				47.38560104370117,
				29.40434455871582,
				32.42051315307617
			],
			"min":[
				-29.87456703186035,
				-56.655006408691406,
				-44.06425476074219
			],
			"type":"VEC3"
		},
		{
			"bufferView":1,
			"componentType":5126,
			"count":286,
			"type":"VEC3"
		},
		{
			"bufferView":2,
			"componentType":5126,
			"count":286,
			"type":"VEC2"
		},
		{
			"bufferView":3,
			"componentType":5123,
			"count":666,
			"type":"SCALAR"
		},
		{
			"bufferView":4,
			"componentType":5126,
			"count":96,
			"max":[
				1,
				1,
				1
			],
			"min":[
				-1,
				-1,
				-1
			],
			"type":"VEC3"
		},
		{
			"bufferView":5,
			"componentType":5126,
			"count":96,
			"type":"VEC3"
		},
		{
			"bufferView":6,
			"componentType":5126,
			"count":96,
			"type":"VEC2"
		},
		{
			"bufferView":7,
			"componentType":5123,
			"count":180,
			"type":"SCALAR"
		},
		{
			"bufferView":8,
			"componentType":5126,
			"count":96,
			"max":[
				1,
				1,
				1
			],
			"min":[
				-1,
				-1,
				-1
			],
			"type":"VEC3"
		},
		{
			"bufferView":9,
			"componentType":5126,
			"count":96,
			"type":"VEC3"
		},
		{
			"bufferView":10,
			"componentType":5126,
			"count":96,
			"type":"VEC2"
		},
		{
			"bufferView":11,
			"componentType":5126,
			"count":96,
			"max":[
				1,
				1,
				1
			],
			"min":[
				-1,
				-1,
				-1
			],
			"type":"VEC3"
		},
		{
			"bufferView":12,
			"componentType":5126,
			"count":96,
			"type":"VEC3"
		},
		{
			"bufferView":13,
			"componentType":5126,
			"count":96,
			"type":"VEC2"
		},
		{
			"bufferView":14,
			"componentType":5126,
			"count":96,
			"max":[
				1,
				1,
				1
			],
			"min":[
				-1,
				-1,
				-1
			],
			"type":"VEC3"
		},
		{
			"bufferView":15,
			"componentType":5126,
			"count":96,
			"type":"VEC3"
		},
		{
			"bufferView":16,
			"componentType":5126,
			"count":96,
			"type":"VEC2"
		},
		{
			"bufferView":17,
			"componentType":5126,
			"count":96,
			"max":[
				1,
				1,
				1
			],
			"min":[
				-1,
				-1,
				-1
			],
			"type":"VEC3"
		},
		{
			"bufferView":18,
			"componentType":5126,
			"count":96,
			"type":"VEC3"
		},
		{
			"bufferView":19,
			"componentType":5126,
			"count":96,
			"type":"VEC2"
		},
		{
			"bufferView":20,
			"componentType":5126,
			"count":96,
			"max":[
				1,
				1,
				1
			],
			"min":[
				-1,
				-1,
				-1
			],
			"type":"VEC3"
		},
		{
			"bufferView":21,
			"componentType":5126,
			"count":96,
			"type":"VEC3"
		},
		{
			"bufferView":22,
			"componentType":5126,
			"count":96,
			"type":"VEC2"
		},
		{
			"bufferView":23,
			"componentType":5126,
			"count":96,
			"max":[
				1,
				1,
				1
			],
			"min":[
				-1,
				-1,
				-1
			],
			"type":"VEC3"
		},
		{
			"bufferView":24,
			"componentType":5126,
			"count":96,
			"type":"VEC3"
		},
		{
			"bufferView":25,
			"componentType":5126,
			"count":96,
			"type":"VEC2"
		},
		{
			"bufferView":26,
			"componentType":5126,
			"count":96,
			"max":[
				1,
				1,
				1
			],
			"min":[
				-1,
				-1,
				-1
			],
			"type":"VEC3"
		},
		{
			"bufferView":27,
			"componentType":5126,
			"count":96,
			"type":"VEC3"
		},
		{
			"bufferView":28,
			"componentType":5126,
			"count":96,
			"type":"VEC2"
		},
		{
			"bufferView":29,
			"componentType":5126,
			"count":96,
			"max":[
				1,
				1,
				1
			],
			"min":[
				-1,
				-1,
				-1
			],
			"type":"VEC3"
		},
		{
			"bufferView":30,
			"componentType":5126,
			"count":96,
			"type":"VEC3"
		},
		{
			"bufferView":31,
			"componentType":5126,
			"count":96,
			"type":"VEC2"
		},
		{
			"bufferView":32,
			"componentType":5126,
			"count":96,
			"max":[
				1,
				1,
				1
			],
			"min":[
				-1,
				-1,
				-1
			],
			"type":"VEC3"
		},
		{
			"bufferView":33,
			"componentType":5126,
			"count":96,
			"type":"VEC3"
		},
		{
			"bufferView":34,
			"componentType":5126,
			"count":96,
			"type":"VEC2"
		},
		{
			"bufferView":35,
			"componentType":5126,
			"count":168,
			"max":[
				1,
				1,
				0.09377201646566391
			],
			"min":[
				-1.1586849689483643,
				-34.22997283935547,
				-9.664609909057617
			],
			"type":"VEC3"
		},
		{
			"bufferView":36,
			"componentType":5126,
			"count":168,
			"type":"VEC3"
		},
		{
			"bufferView":37,
			"componentType":5126,
			"count":168,
			"type":"VEC2"
		},
		{
			"bufferView":38,
			"componentType":5123,
			"count":252,
			"type":"SCALAR"
		},
		{
			"bufferView":39,
			"componentType":5126,
			"count":88,
			"max":[
				30.463319778442383,
				3.259463310241699,
				8.099311828613281
			],
			"min":[
				-45.99168395996094,
				-2.3738319873809814,
				-1.000000238418579
			],
			"type":"VEC3"
		},
		{
			"bufferView":40,
			"componentType":5126,
			"count":88,
			"type":"VEC3"
		},
		{
			"bufferView":41,
			"componentType":5126,
			"count":88,
			"type":"VEC2"
		},
		{
			"bufferView":42,
			"componentType":5123,
			"count":132,
			"type":"SCALAR"
		},
		{
			"bufferView":43,
			"componentType":5126,
			"count":2379,
			"max":[
				0.9872310161590576,
				0.9975767135620117,
				0.9872307181358337
			],
			"min":[
				-0.9872305393218994,
				-0.9975767135620117,
				-0.9872310161590576
			],
			"type":"VEC3"
		},
		{
			"bufferView":44,
			"componentType":5126,
			"count":2379,
			"type":"VEC3"
		},
		{
			"bufferView":45,
			"componentType":5126,
			"count":2379,
			"type":"VEC2"
		},
		{
			"bufferView":46,
			"componentType":5123,
			"count":11904,
			"type":"SCALAR"
		},
		{
			"bufferView":47,
			"componentType":5126,
			"count":2379,
			"max":[
				0.9872310161590576,
				0.9975767135620117,
				0.9872307181358337
			],
			"min":[
				-0.9872305393218994,
				-0.9975767135620117,
				-0.9872310161590576
			],
			"type":"VEC3"
		},
		{
			"bufferView":48,
			"componentType":5126,
			"count":2379,
			"type":"VEC3"
		},
		{
			"bufferView":49,
			"componentType":5126,
			"count":2379,
			"type":"VEC2"
		},
		{
			"bufferView":50,
			"componentType":5126,
			"count":254,
			"max":[
				1.5319430828094482,
				0.007017612457275391,
				1.1503174304962158
			],
			"min":[
				-0.9540049433708191,
				-0.3634986877441406,
				-1.2509732246398926
			],
			"type":"VEC3"
		},
		{
			"bufferView":51,
			"componentType":5126,
			"count":254,
			"type":"VEC3"
		},
		{
			"bufferView":52,
			"componentType":5126,
			"count":254,
			"type":"VEC2"
		},
		{
			"bufferView":53,
			"componentType":5123,
			"count":384,
			"type":"SCALAR"
		}
	],
	"bufferViews":[
		{
			"buffer":0,
			"byteLength":3432,
			"byteOffset":0,
			"target":34962
		},
		{
			"buffer":0,
			"byteLength":3432,
			"byteOffset":3432,
			"target":34962
		},
		{
			"buffer":0,
			"byteLength":2288,
			"byteOffset":6864,
			"target":34962
		},
		{
			"buffer":0,
			"byteLength":1332,
			"byteOffset":9152,
			"target":34963
		},
		{
			"buffer":0,
			"byteLength":1152,
			"byteOffset":10484,
			"target":34962
		},
		{
			"buffer":0,
			"byteLength":1152,
			"byteOffset":11636,
			"target":34962
		},
		{
			"buffer":0,
			"byteLength":768,
			"byteOffset":12788,
			"target":34962
		},
		{
			"buffer":0,
			"byteLength":360,
			"byteOffset":13556,
			"target":34963
		},
		{
			"buffer":0,
			"byteLength":1152,
			"byteOffset":13916,
			"target":34962
		},
		{
			"buffer":0,
			"byteLength":1152,
			"byteOffset":15068,
			"target":34962
		},
		{
			"buffer":0,
			"byteLength":768,
			"byteOffset":16220,
			"target":34962
		},
		{
			"buffer":0,
			"byteLength":1152,
			"byteOffset":16988,
			"target":34962
		},
		{
			"buffer":0,
			"byteLength":1152,
			"byteOffset":18140,
			"target":34962
		},
		{
			"buffer":0,
			"byteLength":768,
			"byteOffset":19292,
			"target":34962
		},
		{
			"buffer":0,
			"byteLength":1152,
			"byteOffset":20060,
			"target":34962
		},
		{
			"buffer":0,
			"byteLength":1152,
			"byteOffset":21212,
			"target":34962
		},
		{
			"buffer":0,
			"byteLength":768,
			"byteOffset":22364,
			"target":34962
		},
		{
			"buffer":0,
			"byteLength":1152,
			"byteOffset":23132,
			"target":34962
		},
		{
			"buffer":0,
			"byteLength":1152,
			"byteOffset":24284,
			"target":34962
		},
		{
			"buffer":0,
			"byteLength":768,
			"byteOffset":25436,
			"target":34962
		},
		{
			"buffer":0,
			"byteLength":1152,
			"byteOffset":26204,
			"target":34962
		},
		{
			"buffer":0,
			"byteLength":1152,
			"byteOffset":27356,
			"target":34962
		},
		{
			"buffer":0,
			"byteLength":768,
			"byteOffset":28508,
			"target":34962
		},
		{
			"buffer":0,
			"byteLength":1152,
			"byteOffset":29276,
			"target":34962
		},
		{
			"buffer":0,
			"byteLength":1152,
			"byteOffset":30428,
			"target":34962
		},
		{
			"buffer":0,
			"byteLength":768,
			"byteOffset":31580,
			"target":34962
		},
		{
			"buffer":0,
			"byteLength":1152,
			"byteOffset":32348,
			"target":34962
		},
		{
			"buffer":0,
			"byteLength":1152,
			"byteOffset":33500,
			"target":34962
		},
		{
			"buffer":0,
			"byteLength":768,
			"byteOffset":34652,
			"target":34962
		},
		{
			"buffer":0,
			"byteLength":1152,
			"byteOffset":35420,
			"target":34962
		},
		{
			"buffer":0,
			"byteLength":1152,
			"byteOffset":36572,
			"target":34962
		},
		{
			"buffer":0,
			"byteLength":768,
			"byteOffset":37724,
			"target":34962
		},
		{
			"buffer":0,
			"byteLength":1152,
			"byteOffset":38492,
			"target":34962
		},
		{
			"buffer":0,
			"byteLength":1152,
			"byteOffset":39644,
			"target":34962
		},
		{
			"buffer":0,
			"byteLength":768,
			"byteOffset":40796,
			"target":34962
		},
		{
			"buffer":0,
			"byteLength":2016,
			"byteOffset":41564,
			"target":34962
		},
		{
			"buffer":0,
			"byteLength":2016,
			"byteOffset":43580,
			"target":34962
		},
		{
			"buffer":0,
			"byteLength":1344,
			"byteOffset":45596,
			"target":34962
		},
		{
			"buffer":0,
			"byteLength":504,
			"byteOffset":46940,
			"target":34963
		},
		{
			"buffer":0,
			"byteLength":1056,
			"byteOffset":47444,
			"target":34962
		},
		{
			"buffer":0,
			"byteLength":1056,
			"byteOffset":48500,
			"target":34962
		},
		{
			"buffer":0,
			"byteLength":704,
			"byteOffset":49556,
			"target":34962
		},
		{
			"buffer":0,
			"byteLength":264,
			"byteOffset":50260,
			"target":34963
		},
		{
			"buffer":0,
			"byteLength":28548,
			"byteOffset":50524,
			"target":34962
		},
		{
			"buffer":0,
			"byteLength":28548,
			"byteOffset":79072,
			"target":34962
		},
		{
			"buffer":0,
			"byteLength":19032,
			"byteOffset":107620,
			"target":34962
		},
		{
			"buffer":0,
			"byteLength":23808,
			"byteOffset":126652,
			"target":34963
		},
		{
			"buffer":0,
			"byteLength":28548,
			"byteOffset":150460,
			"target":34962
		},
		{
			"buffer":0,
			"byteLength":28548,
			"byteOffset":179008,
			"target":34962
		},
		{
			"buffer":0,
			"byteLength":19032,
			"byteOffset":207556,
			"target":34962
		},
		{
			"buffer":0,
			"byteLength":3048,
			"byteOffset":226588,
			"target":34962
		},
		{
			"buffer":0,
			"byteLength":3048,
			"byteOffset":229636,
			"target":34962
		},
		{
			"buffer":0,
			"byteLength":2032,
			"byteOffset":232684,
			"target":34962
		},
		{
			"buffer":0,
			"byteLength":768,
			"byteOffset":234716,
			"target":34963
		}
	],
	"samplers":[
		{
			"magFilter":9729,
			"minFilter":9987
		}
	],
	"buffers":[
		{
			"byteLength":235484,
			"uri":"FarmIsland.bin"
		}
	]
}
