{
	"asset":{
		"generator":"Khronos glTF Blender I/O v4.5.48",
		"version":"2.0"
	},
	"scene":0,
	"scenes":[
		{
			"name":"MultiMeshSurfaces",
			"nodes":[
				0
			]
		}
	],
	"nodes":[
		{
			"mesh":0,
			"name":"MultiMeshDiscIsland",
			"rotation":[
				0,
				1,
				0,
				0
			],
			"scale":[
				-18.275718688964844,
				-9.40987777709961,
				-18.275718688964844
			],
			"translation":[
				0,
				-39.89684295654297,
				2.259685516357422
			]
		}
	],
	"materials":[
		{
			"doubleSided":true,
			"name":"color_palette",
			"pbrMetallicRoughness":{
				"baseColorTexture":{
					"index":0
				},
				"metallicFactor":0,
				"roughnessFactor":0.5
			}
		}
	],
	"meshes":[
		{
			"name":"Cylinder.003",
			"primitives":[
				{
					"attributes":{
						"POSITION":0,
						"NORMAL":1,
						"TEXCOORD_0":2
					},
					"indices":3,
					"material":0
				}
			]
		}
	],
	"textures":[
		{
			"sampler":0,
			"source":0
		}
	],
	"images":[
		{
			"mimeType":"image/png",
			"name":"color_palette.png",
			"uri":"../textures/color_palette.png"
		}
	],
	"accessors":[
		{
			"bufferView":0,
			"componentType":5126,
			"count":77,
			"max":[
				0.9403560161590576,
				1.0000001192092896,
				0.9403560161590576
			],
			"min":[
				-0.9403560757637024,
				0.9102329611778259,
				-0.9403560757637024
			],
			"type":"VEC3"
		},
		{
			"bufferView":1,
			"componentType":5126,
			"count":77,
			"type":"VEC3"
		},
		{
			"bufferView":2,
			"componentType":5126,
			"count":77,
			"type":"VEC2"
		},
		{
			"bufferView":3,
			"componentType":5123,
			"count":330,
			"type":"SCALAR"
		}
	],
	"bufferViews":[
		{
			"buffer":0,
			"byteLength":924,
			"byteOffset":0,
			"target":34962
		},
		{
			"buffer":0,
			"byteLength":924,
			"byteOffset":924,
			"target":34962
		},
		{
			"buffer":0,
			"byteLength":616,
			"byteOffset":1848,
			"target":34962
		},
		{
			"buffer":0,
			"byteLength":660,
			"byteOffset":2464,
			"target":34963
		}
	],
	"samplers":[
		{
			"magFilter":9729,
			"minFilter":9987
		}
	],
	"buffers":[
		{
			"byteLength":3124,
			"uri":"MultiMeshSurfaces.bin"
		}
	]
}
