{
	"asset":{
		"generator":"Khronos glTF Blender I/O v4.5.48",
		"version":"2.0"
	},
	"scene":0,
	"scenes":[
		{
			"name":"TugBoatColl",
			"nodes":[
				0,
				1,
				2,
				3,
				4,
				5,
				6,
				7,
				8,
				9,
				10,
				11,
				12,
				13,
				14,
				15,
				16,
				17,
				18
			]
		}
	],
	"nodes":[
		{
			"mesh":0,
			"name":"Cube-convcolonly"
		},
		{
			"mesh":1,
			"name":"Cube-convcolonly.001"
		},
		{
			"mesh":2,
			"name":"Cube-convcolonly.002",
			"translation":[
				2.5210509300231934,
				0.8374366760253906,
				0.010124702006578445
			]
		},
		{
			"mesh":3,
			"name":"Cube-convcolonly.003",
			"translation":[
				-2.5568559169769287,
				0.8374366760253906,
				0.010124702006578445
			]
		},
		{
			"mesh":4,
			"name":"Cube-convcolonly.004",
			"rotation":[
				0,
				0.7071068286895752,
				0,
				0.7071068286895752
			],
			"translation":[
				1.3466163873672485,
				0.8374366760253906,
				-4.8740315437316895
			]
		},
		{
			"mesh":5,
			"name":"Cube-convcolonly.005",
			"rotation":[
				0,
				0.7071068286895752,
				0,
				0.7071068286895752
			],
			"translation":[
				-0.01882803440093994,
				1.3963855504989624,
				4.8866729736328125
			]
		},
		{
			"mesh":6,
			"name":"Cube-convcolonly.006",
			"translation":[
				-1.1413859128952026,
				1.9957563877105713,
				-1.3298778533935547
			]
		},
		{
			"mesh":7,
			"name":"Cube-convcolonly.007",
			"rotation":[
				0,
				0.7071068286895752,
				0,
				0.7071068286895752
			],
			"translation":[
				0.00213921582326293,
				2.4147863388061523,
				0.9171131253242493
			]
		},
		{
			"mesh":8,
			"name":"Cube-convcolonly.008",
			"rotation":[
				0,
				-1,
				0,
				1.6292068494294654e-07
			],
			"translation":[
				0.9599573612213135,
				2.4147863388061523,
				0.0043561458587646484
			]
		},
		{
			"mesh":9,
			"name":"Cube-convcolonly.009",
			"rotation":[
				0,
				-1,
				0,
				1.6292068494294654e-07
			],
			"translation":[
				-0.933626651763916,
				2.4147863388061523,
				0.0043561458587646484
			]
		},
		{
			"mesh":10,
			"name":"Cube-convcolonly.010",
			"rotation":[
				-0.70710688829422,
				-0.7071066498756409,
				0,
				3.0908601900137e-08
			],
			"translation":[
				-0.933626651763916,
				4.434988498687744,
				-0.08058556914329529
			]
		},
		{
			"mesh":11,
			"name":"Cube-convcolonly.011",
			"rotation":[
				0,
				0.7071068286895752,
				0,
				0.7071068286895752
			],
			"translation":[
				1.9278347492218018,
				1.0978119373321533,
				4.8866729736328125
			]
		},
		{
			"mesh":12,
			"name":"Cube-convcolonly.012",
			"rotation":[
				0,
				0.7071068286895752,
				0,
				0.7071068286895752
			],
			"translation":[
				-1.9366061687469482,
				1.0978119373321533,
				4.8866729736328125
			]
		},
		{
			"mesh":13,
			"name":"Cube-convcolonly.013",
			"rotation":[
				0,
				-1,
				0,
				1.6292068494294654e-07
			],
			"translation":[
				2.4605507850646973,
				1.0978119373321533,
				4.115058422088623
			]
		},
		{
			"mesh":14,
			"name":"Cube-convcolonly.014",
			"rotation":[
				0,
				-1,
				0,
				1.6292068494294654e-07
			],
			"translation":[
				-2.5723180770874023,
				1.0978119373321533,
				4.115058422088623
			]
		},
		{
			"mesh":15,
			"name":"Cube-convcolonly.015",
			"rotation":[
				-0.027638079598546028,
				0.7065665125846863,
				-0.027638079598546028,
				0.7065664529800415
			],
			"translation":[
				-1.1748769283294678,
				0.9208826422691345,
				5.068229675292969
			]
		},
		{
			"mesh":16,
			"name":"Cube-convcolonly.016",
			"rotation":[
				-0.027638079598546028,
				0.7065665125846863,
				-0.027638079598546028,
				0.7065664529800415
			],
			"translation":[
				1.1640363931655884,
				0.9208826422691345,
				5.068229675292969
			]
		},
		{
			"mesh":17,
			"name":"Cube-convcolonly.017",
			"rotation":[
				0.08233541250228882,
				0.7022968530654907,
				0.08233541250228882,
				0.7022968530654907
			],
			"translation":[
				-1.1748769283294678,
				-0.10381549596786499,
				4.989606857299805
			]
		},
		{
			"mesh":18,
			"name":"Cube-convcolonly.018",
			"rotation":[
				0.08233541250228882,
				0.7022968530654907,
				0.08233541250228882,
				0.7022968530654907
			],
			"translation":[
				1.1640363931655884,
				-0.10381549596786499,
				4.989606857299805
			]
		}
	],
	"meshes":[
		{
			"name":"Cube.002",
			"primitives":[
				{
					"attributes":{
						"POSITION":0,
						"NORMAL":1,
						"TEXCOORD_0":2
					},
					"indices":3
				}
			]
		},
		{
			"name":"Cube.005",
			"primitives":[
				{
					"attributes":{
						"POSITION":4,
						"NORMAL":5,
						"TEXCOORD_0":6
					},
					"indices":7
				}
			]
		},
		{
			"name":"Cube.010",
			"primitives":[
				{
					"attributes":{
						"POSITION":8,
						"NORMAL":9,
						"TEXCOORD_0":10
					},
					"indices":11
				}
			]
		},
		{
			"name":"Cube.011",
			"primitives":[
				{
					"attributes":{
						"POSITION":12,
						"NORMAL":13,
						"TEXCOORD_0":14
					},
					"indices":11
				}
			]
		},
		{
			"name":"Cube.012",
			"primitives":[
				{
					"attributes":{
						"POSITION":15,
						"NORMAL":16,
						"TEXCOORD_0":17
					},
					"indices":11
				}
			]
		},
		{
			"name":"Cube.013",
			"primitives":[
				{
					"attributes":{
						"POSITION":18,
						"NORMAL":19,
						"TEXCOORD_0":20
					},
					"indices":11
				}
			]
		},
		{
			"name":"Cube.008",
			"primitives":[
				{
					"attributes":{
						"POSITION":21,
						"NORMAL":22,
						"TEXCOORD_0":23
					},
					"indices":24
				}
			]
		},
		{
			"name":"Cube.009",
			"primitives":[
				{
					"attributes":{
						"POSITION":25,
						"NORMAL":26,
						"TEXCOORD_0":27
					},
					"indices":28
				}
			]
		},
		{
			"name":"Cube.014",
			"primitives":[
				{
					"attributes":{
						"POSITION":29,
						"NORMAL":30,
						"TEXCOORD_0":31
					},
					"indices":28
				}
			]
		},
		{
			"name":"Cube.015",
			"primitives":[
				{
					"attributes":{
						"POSITION":32,
						"NORMAL":33,
						"TEXCOORD_0":34
					},
					"indices":28
				}
			]
		},
		{
			"name":"Cube.016",
			"primitives":[
				{
					"attributes":{
						"POSITION":35,
						"NORMAL":36,
						"TEXCOORD_0":37
					},
					"indices":28
				}
			]
		},
		{
			"name":"Cube.017",
			"primitives":[
				{
					"attributes":{
						"POSITION":38,
						"NORMAL":39,
						"TEXCOORD_0":40
					},
					"indices":28
				}
			]
		},
		{
			"name":"Cube.018",
			"primitives":[
				{
					"attributes":{
						"POSITION":41,
						"NORMAL":42,
						"TEXCOORD_0":43
					},
					"indices":28
				}
			]
		},
		{
			"name":"Cube.019",
			"primitives":[
				{
					"attributes":{
						"POSITION":44,
						"NORMAL":45,
						"TEXCOORD_0":46
					},
					"indices":28
				}
			]
		},
		{
			"name":"Cube.020",
			"primitives":[
				{
					"attributes":{
						"POSITION":47,
						"NORMAL":48,
						"TEXCOORD_0":49
					},
					"indices":28
				}
			]
		},
		{
			"name":"Cube.021",
			"primitives":[
				{
					"attributes":{
						"POSITION":50,
						"NORMAL":51,
						"TEXCOORD_0":52
					},
					"indices":11
				}
			]
		},
		{
			"name":"Cube.022",
			"primitives":[
				{
					"attributes":{
						"POSITION":53,
						"NORMAL":54,
						"TEXCOORD_0":55
					},
					"indices":11
				}
			]
		},
		{
			"name":"Cube.023",
			"primitives":[
				{
					"attributes":{
						"POSITION":56,
						"NORMAL":57,
						"TEXCOORD_0":58
					},
					"indices":11
				}
			]
		},
		{
			"name":"Cube.024",
			"primitives":[
				{
					"attributes":{
						"POSITION":59,
						"NORMAL":60,
						"TEXCOORD_0":61
					},
					"indices":11
				}
			]
		}
	],
	"accessors":[
		{
			"bufferView":0,
			"componentType":5126,
			"count":36,
			"max":[
				2.624331474304199,
				0.9230404496192932,
				5.0510663986206055
			],
			"min":[
				-2.6488640308380127,
				-0.7610669136047363,
				-5.005824565887451
			],
			"type":"VEC3"
		},
		{
			"bufferView":1,
			"componentType":5126,
			"count":36,
			"type":"VEC3"
		},
		{
			"bufferView":2,
			"componentType":5126,
			"count":36,
			"type":"VEC2"
		},
		{
			"bufferView":3,
			"componentType":5123,
			"count":60,
			"type":"SCALAR"
		},
		{
			"bufferView":4,
			"componentType":5126,
			"count":49,
			"max":[
				0.9834111332893372,
				1.7716162204742432,
				0.9981001019477844
			],
			"min":[
				-1.4286134243011475,
				0.580592691898346,
				-2.6916441917419434
			],
			"type":"VEC3"
		},
		{
			"bufferView":5,
			"componentType":5126,
			"count":49,
			"type":"VEC3"
		},
		{
			"bufferView":6,
			"componentType":5126,
			"count":49,
			"type":"VEC2"
		},
		{
			"bufferView":7,
			"componentType":5123,
			"count":102,
			"type":"SCALAR"
		},
		{
			"bufferView":8,
			"componentType":5126,
			"count":24,
			"max":[
				0.08866479992866516,
				1.0426127910614014,
				1.2635819911956787
			],
			"min":[
				-0.08949364721775055,
				0.07528489828109741,
				-4.920755386352539
			],
			"type":"VEC3"
		},
		{
			"bufferView":9,
			"componentType":5126,
			"count":24,
			"type":"VEC3"
		},
		{
			"bufferView":10,
			"componentType":5126,
			"count":24,
			"type":"VEC2"
		},
		{
			"bufferView":11,
			"componentType":5123,
			"count":36,
			"type":"SCALAR"
		},
		{
			"bufferView":12,
			"componentType":5126,
			"count":24,
			"max":[
				0.08866479992866516,
				1.0426127910614014,
				1.2635819911956787
			],
			"min":[
				-0.08949364721775055,
				0.07528489828109741,
				-4.920755386352539
			],
			"type":"VEC3"
		},
		{
			"bufferView":13,
			"componentType":5126,
			"count":24,
			"type":"VEC3"
		},
		{
			"bufferView":14,
			"componentType":5126,
			"count":24,
			"type":"VEC2"
		},
		{
			"bufferView":15,
			"componentType":5126,
			"count":24,
			"max":[
				0.08866479992866516,
				1.0426127910614014,
				1.2635819911956787
			],
			"min":[
				-0.08949368447065353,
				0.07528489828109741,
				-3.9944708347320557
			],
			"type":"VEC3"
		},
		{
			"bufferView":16,
			"componentType":5126,
			"count":24,
			"type":"VEC3"
		},
		{
			"bufferView":17,
			"componentType":5126,
			"count":24,
			"type":"VEC2"
		},
		{
			"bufferView":18,
			"componentType":5126,
			"count":24,
			"max":[
				0.07313483208417892,
				0.4836639165878296,
				1.201896071434021
			],
			"min":[
				-0.1601383537054062,
				-0.48366397619247437,
				-1.201896071434021
			],
			"type":"VEC3"
		},
		{
			"bufferView":19,
			"componentType":5126,
			"count":24,
			"type":"VEC3"
		},
		{
			"bufferView":20,
			"componentType":5126,
			"count":24,
			"type":"VEC2"
		},
		{
			"bufferView":21,
			"componentType":5126,
			"count":36,
			"max":[
				0.24475274980068207,
				3.583285093307495,
				0.29314446449279785
			],
			"min":[
				-0.29314449429512024,
				-0.29314446449279785,
				-0.530361533164978
			],
			"type":"VEC3"
		},
		{
			"bufferView":22,
			"componentType":5126,
			"count":36,
			"type":"VEC3"
		},
		{
			"bufferView":23,
			"componentType":5126,
			"count":36,
			"type":"VEC2"
		},
		{
			"bufferView":24,
			"componentType":5123,
			"count":60,
			"type":"SCALAR"
		},
		{
			"bufferView":25,
			"componentType":5126,
			"count":24,
			"max":[
				0.08907924592494965,
				0.4836639165878296,
				1.0060309171676636
			],
			"min":[
				-0.08907923847436905,
				-0.48366397619247437,
				-1.0060309171676636
			],
			"type":"VEC3"
		},
		{
			"bufferView":26,
			"componentType":5126,
			"count":24,
			"type":"VEC3"
		},
		{
			"bufferView":27,
			"componentType":5126,
			"count":24,
			"type":"VEC2"
		},
		{
			"bufferView":28,
			"componentType":5123,
			"count":36,
			"type":"SCALAR"
		},
		{
			"bufferView":29,
			"componentType":5126,
			"count":24,
			"max":[
				0.04540277272462845,
				0.4836639165878296,
				1.0060309171676636
			],
			"min":[
				-0.04540276899933815,
				-0.48366397619247437,
				-1.0060309171676636
			],
			"type":"VEC3"
		},
		{
			"bufferView":30,
			"componentType":5126,
			"count":24,
			"type":"VEC3"
		},
		{
			"bufferView":31,
			"componentType":5126,
			"count":24,
			"type":"VEC2"
		},
		{
			"bufferView":32,
			"componentType":5126,
			"count":24,
			"max":[
				0.04540277272462845,
				0.4836639165878296,
				1.0060309171676636
			],
			"min":[
				-0.04540276899933815,
				-0.48366397619247437,
				-1.0060309171676636
			],
			"type":"VEC3"
		},
		{
			"bufferView":33,
			"componentType":5126,
			"count":24,
			"type":"VEC3"
		},
		{
			"bufferView":34,
			"componentType":5126,
			"count":24,
			"type":"VEC2"
		},
		{
			"bufferView":35,
			"componentType":5126,
			"count":24,
			"max":[
				0.1570228934288025,
				2.1399192810058594,
				1.0060309171676636
			],
			"min":[
				-0.15702228248119354,
				-0.2635034918785095,
				-1.7910915613174438
			],
			"type":"VEC3"
		},
		{
			"bufferView":36,
			"componentType":5126,
			"count":24,
			"type":"VEC3"
		},
		{
			"bufferView":37,
			"componentType":5126,
			"count":24,
			"type":"VEC2"
		},
		{
			"bufferView":38,
			"componentType":5126,
			"count":24,
			"max":[
				0.07313483208417892,
				0.2096756249666214,
				0.7037330865859985
			],
			"min":[
				-0.1601383537054062,
				-0.209675595164299,
				-0.7037330865859985
			],
			"type":"VEC3"
		},
		{
			"bufferView":39,
			"componentType":5126,
			"count":24,
			"type":"VEC3"
		},
		{
			"bufferView":40,
			"componentType":5126,
			"count":24,
			"type":"VEC2"
		},
		{
			"bufferView":41,
			"componentType":5126,
			"count":24,
			"max":[
				0.07313483208417892,
				0.2096756249666214,
				0.7037330865859985
			],
			"min":[
				-0.1601383537054062,
				-0.209675595164299,
				-0.7037330865859985
			],
			"type":"VEC3"
		},
		{
			"bufferView":42,
			"componentType":5126,
			"count":24,
			"type":"VEC3"
		},
		{
			"bufferView":43,
			"componentType":5126,
			"count":24,
			"type":"VEC2"
		},
		{
			"bufferView":44,
			"componentType":5126,
			"count":24,
			"max":[
				0.07313479483127594,
				0.2096756249666214,
				2.837343692779541
			],
			"min":[
				-0.16013900935649872,
				-0.209675595164299,
				-0.7037330865859985
			],
			"type":"VEC3"
		},
		{
			"bufferView":45,
			"componentType":5126,
			"count":24,
			"type":"VEC3"
		},
		{
			"bufferView":46,
			"componentType":5126,
			"count":24,
			"type":"VEC2"
		},
		{
			"bufferView":47,
			"componentType":5126,
			"count":24,
			"max":[
				0.07313479483127594,
				0.2096756249666214,
				2.837343692779541
			],
			"min":[
				-0.16013900935649872,
				-0.209675595164299,
				-0.7037330865859985
			],
			"type":"VEC3"
		},
		{
			"bufferView":48,
			"componentType":5126,
			"count":24,
			"type":"VEC3"
		},
		{
			"bufferView":49,
			"componentType":5126,
			"count":24,
			"type":"VEC2"
		},
		{
			"bufferView":50,
			"componentType":5126,
			"count":24,
			"max":[
				0.07313483208417892,
				0.4836639165878296,
				0.2466852366924286
			],
			"min":[
				-0.1601383537054062,
				-0.5380386710166931,
				-0.2466852366924286
			],
			"type":"VEC3"
		},
		{
			"bufferView":51,
			"componentType":5126,
			"count":24,
			"type":"VEC3"
		},
		{
			"bufferView":52,
			"componentType":5126,
			"count":24,
			"type":"VEC2"
		},
		{
			"bufferView":53,
			"componentType":5126,
			"count":24,
			"max":[
				0.07313483208417892,
				0.4836639165878296,
				0.2466852366924286
			],
			"min":[
				-0.1601383537054062,
				-0.5380386710166931,
				-0.2466852366924286
			],
			"type":"VEC3"
		},
		{
			"bufferView":54,
			"componentType":5126,
			"count":24,
			"type":"VEC3"
		},
		{
			"bufferView":55,
			"componentType":5126,
			"count":24,
			"type":"VEC2"
		},
		{
			"bufferView":56,
			"componentType":5126,
			"count":24,
			"max":[
				0.07313483208417892,
				0.4836639165878296,
				0.2466852366924286
			],
			"min":[
				-0.1601383537054062,
				-0.5380386710166931,
				-0.2466852366924286
			],
			"type":"VEC3"
		},
		{
			"bufferView":57,
			"componentType":5126,
			"count":24,
			"type":"VEC3"
		},
		{
			"bufferView":58,
			"componentType":5126,
			"count":24,
			"type":"VEC2"
		},
		{
			"bufferView":59,
			"componentType":5126,
			"count":24,
			"max":[
				0.07313483208417892,
				0.4836639165878296,
				0.2466852366924286
			],
			"min":[
				-0.1601383537054062,
				-0.5380386710166931,
				-0.2466852366924286
			],
			"type":"VEC3"
		},
		{
			"bufferView":60,
			"componentType":5126,
			"count":24,
			"type":"VEC3"
		},
		{
			"bufferView":61,
			"componentType":5126,
			"count":24,
			"type":"VEC2"
		}
	],
	"bufferViews":[
		{
			"buffer":0,
			"byteLength":432,
			"byteOffset":0,
			"target":34962
		},
		{
			"buffer":0,
			"byteLength":432,
			"byteOffset":432,
			"target":34962
		},
		{
			"buffer":0,
			"byteLength":288,
			"byteOffset":864,
			"target":34962
		},
		{
			"buffer":0,
			"byteLength":120,
			"byteOffset":1152,
			"target":34963
		},
		{
			"buffer":0,
			"byteLength":588,
			"byteOffset":1272,
			"target":34962
		},
		{
			"buffer":0,
			"byteLength":588,
			"byteOffset":1860,
			"target":34962
		},
		{
			"buffer":0,
			"byteLength":392,
			"byteOffset":2448,
			"target":34962
		},
		{
			"buffer":0,
			"byteLength":204,
			"byteOffset":2840,
			"target":34963
		},
		{
			"buffer":0,
			"byteLength":288,
			"byteOffset":3044,
			"target":34962
		},
		{
			"buffer":0,
			"byteLength":288,
			"byteOffset":3332,
			"target":34962
		},
		{
			"buffer":0,
			"byteLength":192,
			"byteOffset":3620,
			"target":34962
		},
		{
			"buffer":0,
			"byteLength":72,
			"byteOffset":3812,
			"target":34963
		},
		{
			"buffer":0,
			"byteLength":288,
			"byteOffset":3884,
			"target":34962
		},
		{
			"buffer":0,
			"byteLength":288,
			"byteOffset":4172,
			"target":34962
		},
		{
			"buffer":0,
			"byteLength":192,
			"byteOffset":4460,
			"target":34962
		},
		{
			"buffer":0,
			"byteLength":288,
			"byteOffset":4652,
			"target":34962
		},
		{
			"buffer":0,
			"byteLength":288,
			"byteOffset":4940,
			"target":34962
		},
		{
			"buffer":0,
			"byteLength":192,
			"byteOffset":5228,
			"target":34962
		},
		{
			"buffer":0,
			"byteLength":288,
			"byteOffset":5420,
			"target":34962
		},
		{
			"buffer":0,
			"byteLength":288,
			"byteOffset":5708,
			"target":34962
		},
		{
			"buffer":0,
			"byteLength":192,
			"byteOffset":5996,
			"target":34962
		},
		{
			"buffer":0,
			"byteLength":432,
			"byteOffset":6188,
			"target":34962
		},
		{
			"buffer":0,
			"byteLength":432,
			"byteOffset":6620,
			"target":34962
		},
		{
			"buffer":0,
			"byteLength":288,
			"byteOffset":7052,
			"target":34962
		},
		{
			"buffer":0,
			"byteLength":120,
			"byteOffset":7340,
			"target":34963
		},
		{
			"buffer":0,
			"byteLength":288,
			"byteOffset":7460,
			"target":34962
		},
		{
			"buffer":0,
			"byteLength":288,
			"byteOffset":7748,
			"target":34962
		},
		{
			"buffer":0,
			"byteLength":192,
			"byteOffset":8036,
			"target":34962
		},
		{
			"buffer":0,
			"byteLength":72,
			"byteOffset":8228,
			"target":34963
		},
		{
			"buffer":0,
			"byteLength":288,
			"byteOffset":8300,
			"target":34962
		},
		{
			"buffer":0,
			"byteLength":288,
			"byteOffset":8588,
			"target":34962
		},
		{
			"buffer":0,
			"byteLength":192,
			"byteOffset":8876,
			"target":34962
		},
		{
			"buffer":0,
			"byteLength":288,
			"byteOffset":9068,
			"target":34962
		},
		{
			"buffer":0,
			"byteLength":288,
			"byteOffset":9356,
			"target":34962
		},
		{
			"buffer":0,
			"byteLength":192,
			"byteOffset":9644,
			"target":34962
		},
		{
			"buffer":0,
			"byteLength":288,
			"byteOffset":9836,
			"target":34962
		},
		{
			"buffer":0,
			"byteLength":288,
			"byteOffset":10124,
			"target":34962
		},
		{
			"buffer":0,
			"byteLength":192,
			"byteOffset":10412,
			"target":34962
		},
		{
			"buffer":0,
			"byteLength":288,
			"byteOffset":10604,
			"target":34962
		},
		{
			"buffer":0,
			"byteLength":288,
			"byteOffset":10892,
			"target":34962
		},
		{
			"buffer":0,
			"byteLength":192,
			"byteOffset":11180,
			"target":34962
		},
		{
			"buffer":0,
			"byteLength":288,
			"byteOffset":11372,
			"target":34962
		},
		{
			"buffer":0,
			"byteLength":288,
			"byteOffset":11660,
			"target":34962
		},
		{
			"buffer":0,
			"byteLength":192,
			"byteOffset":11948,
			"target":34962
		},
		{
			"buffer":0,
			"byteLength":288,
			"byteOffset":12140,
			"target":34962
		},
		{
			"buffer":0,
			"byteLength":288,
			"byteOffset":12428,
			"target":34962
		},
		{
			"buffer":0,
			"byteLength":192,
			"byteOffset":12716,
			"target":34962
		},
		{
			"buffer":0,
			"byteLength":288,
			"byteOffset":12908,
			"target":34962
		},
		{
			"buffer":0,
			"byteLength":288,
			"byteOffset":13196,
			"target":34962
		},
		{
			"buffer":0,
			"byteLength":192,
			"byteOffset":13484,
			"target":34962
		},
		{
			"buffer":0,
			"byteLength":288,
			"byteOffset":13676,
			"target":34962
		},
		{
			"buffer":0,
			"byteLength":288,
			"byteOffset":13964,
			"target":34962
		},
		{
			"buffer":0,
			"byteLength":192,
			"byteOffset":14252,
			"target":34962
		},
		{
			"buffer":0,
			"byteLength":288,
			"byteOffset":14444,
			"target":34962
		},
		{
			"buffer":0,
			"byteLength":288,
			"byteOffset":14732,
			"target":34962
		},
		{
			"buffer":0,
			"byteLength":192,
			"byteOffset":15020,
			"target":34962
		},
		{
			"buffer":0,
			"byteLength":288,
			"byteOffset":15212,
			"target":34962
		},
		{
			"buffer":0,
			"byteLength":288,
			"byteOffset":15500,
			"target":34962
		},
		{
			"buffer":0,
			"byteLength":192,
			"byteOffset":15788,
			"target":34962
		},
		{
			"buffer":0,
			"byteLength":288,
			"byteOffset":15980,
			"target":34962
		},
		{
			"buffer":0,
			"byteLength":288,
			"byteOffset":16268,
			"target":34962
		},
		{
			"buffer":0,
			"byteLength":192,
			"byteOffset":16556,
			"target":34962
		}
	],
	"buffers":[
		{
			"byteLength":16748,
			"uri":"TugBoatColl.bin"
		}
	]
}
