{
	"asset":{
		"generator":"Khronos glTF Blender I/O v4.5.48",
		"version":"2.0"
	},
	"scene":0,
	"scenes":[
		{
			"name":"TugBoat",
			"nodes":[
				0,
				1,
				2,
				3,
				4,
				5,
				6,
				7,
				8
			]
		}
	],
	"nodes":[
		{
			"mesh":0,
			"name":"Body"
		},
		{
			"mesh":1,
			"name":"Cabin"
		},
		{
			"mesh":2,
			"name":"Exhuast"
		},
		{
			"mesh":3,
			"name":"Prop",
			"rotation":[
				0.7071068286895752,
				0,
				0,
				0.7071068286895752
			],
			"translation":[
				-0.026306509971618652,
				-0.2615250051021576,
				-3.2753353118896484
			]
		},
		{
			"mesh":4,
			"name":"CabinConsole"
		},
		{
			"mesh":5,
			"name":"SteeringWheel"
		},
		{
			"mesh":6,
			"name":"Railing",
			"translation":[
				-0.018453333526849747,
				-0.016646074131131172,
				-3.467710018157959
			]
		},
		{
			"mesh":7,
			"name":"RailingBack",
			"rotation":[
				0,
				0.7071068286895752,
				0,
				0.7071068286895752
			],
			"translation":[
				-1.1219360828399658,
				-0.016646074131131172,
				-2.354461669921875
			]
		},
		{
			"mesh":8,
			"name":"RailingBack.001",
			"rotation":[
				0,
				0.7071068286895752,
				0,
				0.7071068286895752
			],
			"translation":[
				-0.007905494421720505,
				1.6605008840560913,
				4.880621433258057
			]
		}
	],
	"materials":[
		{
			"doubleSided":true,
			"name":"color_palette",
			"pbrMetallicRoughness":{
				"baseColorTexture":{
					"index":0
				},
				"metallicFactor":0,
				"roughnessFactor":0.5
			}
		}
	],
	"meshes":[
		{
			"name":"Cube",
			"primitives":[
				{
					"attributes":{
						"POSITION":0,
						"NORMAL":1,
						"TEXCOORD_0":2
					},
					"indices":3,
					"material":0
				}
			]
		},
		{
			"name":"Cube.004",
			"primitives":[
				{
					"attributes":{
						"POSITION":4,
						"NORMAL":5,
						"TEXCOORD_0":6
					},
					"indices":7,
					"material":0
				}
			]
		},
		{
			"name":"Plane.003",
			"primitives":[
				{
					"attributes":{
						"POSITION":8,
						"NORMAL":9,
						"TEXCOORD_0":10
					},
					"indices":11,
					"material":0
				}
			]
		},
		{
			"name":"Cylinder.003",
			"primitives":[
				{
					"attributes":{
						"POSITION":12,
						"NORMAL":13,
						"TEXCOORD_0":14
					},
					"indices":15,
					"material":0
				}
			]
		},
		{
			"name":"Cube.006",
			"primitives":[
				{
					"attributes":{
						"POSITION":16,
						"NORMAL":17,
						"TEXCOORD_0":18
					},
					"indices":19,
					"material":0
				}
			]
		},
		{
			"name":"Cube.007",
			"primitives":[
				{
					"attributes":{
						"POSITION":20,
						"NORMAL":21,
						"TEXCOORD_0":22
					},
					"indices":23,
					"material":0
				}
			]
		},
		{
			"name":"Railing",
			"primitives":[
				{
					"attributes":{
						"POSITION":24,
						"NORMAL":25,
						"TEXCOORD_0":26
					},
					"indices":27,
					"material":0
				}
			]
		},
		{
			"name":"Mesh",
			"primitives":[
				{
					"attributes":{
						"POSITION":28,
						"NORMAL":29,
						"TEXCOORD_0":30
					},
					"indices":31,
					"material":0
				}
			]
		},
		{
			"name":"Mesh.001",
			"primitives":[
				{
					"attributes":{
						"POSITION":32,
						"NORMAL":33,
						"TEXCOORD_0":34
					},
					"indices":31,
					"material":0
				}
			]
		}
	],
	"textures":[
		{
			"sampler":0,
			"source":0
		}
	],
	"images":[
		{
			"mimeType":"image/png",
			"name":"color_palette.png",
			"uri":"../textures/color_palette.png"
		}
	],
	"accessors":[
		{
			"bufferView":0,
			"componentType":5126,
			"count":1788,
			"max":[
				2.663032293319702,
				1.4306089878082275,
				5.257695198059082
			],
			"min":[
				-2.663032293319702,
				-0.7658230066299438,
				-5.023152828216553
			],
			"type":"VEC3"
		},
		{
			"bufferView":1,
			"componentType":5126,
			"count":1788,
			"type":"VEC3"
		},
		{
			"bufferView":2,
			"componentType":5126,
			"count":1788,
			"type":"VEC2"
		},
		{
			"bufferView":3,
			"componentType":5123,
			"count":5766,
			"type":"SCALAR"
		},
		{
			"bufferView":4,
			"componentType":5126,
			"count":444,
			"max":[
				1.2103219032287598,
				4.5858259201049805,
				1.7076383829116821
			],
			"min":[
				-1.4442232847213745,
				0.9502761960029602,
				-2.6656060218811035
			],
			"type":"VEC3"
		},
		{
			"bufferView":5,
			"componentType":5126,
			"count":444,
			"type":"VEC3"
		},
		{
			"bufferView":6,
			"componentType":5126,
			"count":444,
			"type":"VEC2"
		},
		{
			"bufferView":7,
			"componentType":5123,
			"count":1194,
			"type":"SCALAR"
		},
		{
			"bufferView":8,
			"componentType":5126,
			"count":794,
			"max":[
				-0.8579731583595276,
				5.550567626953125,
				-1.0365581512451172
			],
			"min":[
				-1.4313511848449707,
				1.7330443859100342,
				-1.7996054887771606
			],
			"type":"VEC3"
		},
		{
			"bufferView":9,
			"componentType":5126,
			"count":794,
			"type":"VEC3"
		},
		{
			"bufferView":10,
			"componentType":5126,
			"count":794,
			"type":"VEC2"
		},
		{
			"bufferView":11,
			"componentType":5123,
			"count":2544,
			"type":"SCALAR"
		},
		{
			"bufferView":12,
			"componentType":5126,
			"count":1344,
			"max":[
				0.2793029248714447,
				0.07574166357517242,
				0.2793029546737671
			],
			"min":[
				-0.2793029248714447,
				-0.9263036251068115,
				-0.2793028950691223
			],
			"type":"VEC3"
		},
		{
			"bufferView":13,
			"componentType":5126,
			"count":1344,
			"type":"VEC3"
		},
		{
			"bufferView":14,
			"componentType":5126,
			"count":1344,
			"type":"VEC2"
		},
		{
			"bufferView":15,
			"componentType":5123,
			"count":3588,
			"type":"SCALAR"
		},
		{
			"bufferView":16,
			"componentType":5126,
			"count":98,
			"max":[
				0.9119459986686707,
				2.830601692199707,
				0.944877564907074
			],
			"min":[
				-0.9119454622268677,
				2.469619035720825,
				0.7379700541496277
			],
			"type":"VEC3"
		},
		{
			"bufferView":17,
			"componentType":5126,
			"count":98,
			"type":"VEC3"
		},
		{
			"bufferView":18,
			"componentType":5126,
			"count":98,
			"type":"VEC2"
		},
		{
			"bufferView":19,
			"componentType":5123,
			"count":204,
			"type":"SCALAR"
		},
		{
			"bufferView":20,
			"componentType":5126,
			"count":226,
			"max":[
				0.21071641147136688,
				2.969487428665161,
				0.8217934370040894
			],
			"min":[
				-0.21071702241897583,
				2.5741584300994873,
				0.43769028782844543
			],
			"type":"VEC3"
		},
		{
			"bufferView":21,
			"componentType":5126,
			"count":226,
			"type":"VEC3"
		},
		{
			"bufferView":22,
			"componentType":5126,
			"count":226,
			"type":"VEC2"
		},
		{
			"bufferView":23,
			"componentType":5123,
			"count":480,
			"type":"SCALAR"
		},
		{
			"bufferView":24,
			"componentType":5126,
			"count":4436,
			"max":[
				2.525761127471924,
				1.8608683347702026,
				4.761238098144531
			],
			"min":[
				-2.4802491664886475,
				1.3279366493225098,
				-1.2895907163619995
			],
			"type":"VEC3"
		},
		{
			"bufferView":25,
			"componentType":5126,
			"count":4436,
			"type":"VEC3"
		},
		{
			"bufferView":26,
			"componentType":5126,
			"count":4436,
			"type":"VEC2"
		},
		{
			"bufferView":27,
			"componentType":5123,
			"count":25344,
			"type":"SCALAR"
		},
		{
			"bufferView":28,
			"componentType":5126,
			"count":2160,
			"max":[
				2.5245397090911865,
				1.8595976829528809,
				3.438843250274658
			],
			"min":[
				2.431448459625244,
				1.3279366493225098,
				-1.1904371976852417
			],
			"type":"VEC3"
		},
		{
			"bufferView":29,
			"componentType":5126,
			"count":2160,
			"type":"VEC3"
		},
		{
			"bufferView":30,
			"componentType":5126,
			"count":2160,
			"type":"VEC2"
		},
		{
			"bufferView":31,
			"componentType":5123,
			"count":12672,
			"type":"SCALAR"
		},
		{
			"bufferView":32,
			"componentType":5126,
			"count":2160,
			"max":[
				0.046545375138521194,
				0.18245069682598114,
				1.2180742025375366
			],
			"min":[
				-0.04654537886381149,
				-0.3492104709148407,
				-1.2180743217468262
			],
			"type":"VEC3"
		},
		{
			"bufferView":33,
			"componentType":5126,
			"count":2160,
			"type":"VEC3"
		},
		{
			"bufferView":34,
			"componentType":5126,
			"count":2160,
			"type":"VEC2"
		}
	],
	"bufferViews":[
		{
			"buffer":0,
			"byteLength":21456,
			"byteOffset":0,
			"target":34962
		},
		{
			"buffer":0,
			"byteLength":21456,
			"byteOffset":21456,
			"target":34962
		},
		{
			"buffer":0,
			"byteLength":14304,
			"byteOffset":42912,
			"target":34962
		},
		{
			"buffer":0,
			"byteLength":11532,
			"byteOffset":57216,
			"target":34963
		},
		{
			"buffer":0,
			"byteLength":5328,
			"byteOffset":68748,
			"target":34962
		},
		{
			"buffer":0,
			"byteLength":5328,
			"byteOffset":74076,
			"target":34962
		},
		{
			"buffer":0,
			"byteLength":3552,
			"byteOffset":79404,
			"target":34962
		},
		{
			"buffer":0,
			"byteLength":2388,
			"byteOffset":82956,
			"target":34963
		},
		{
			"buffer":0,
			"byteLength":9528,
			"byteOffset":85344,
			"target":34962
		},
		{
			"buffer":0,
			"byteLength":9528,
			"byteOffset":94872,
			"target":34962
		},
		{
			"buffer":0,
			"byteLength":6352,
			"byteOffset":104400,
			"target":34962
		},
		{
			"buffer":0,
			"byteLength":5088,
			"byteOffset":110752,
			"target":34963
		},
		{
			"buffer":0,
			"byteLength":16128,
			"byteOffset":115840,
			"target":34962
		},
		{
			"buffer":0,
			"byteLength":16128,
			"byteOffset":131968,
			"target":34962
		},
		{
			"buffer":0,
			"byteLength":10752,
			"byteOffset":148096,
			"target":34962
		},
		{
			"buffer":0,
			"byteLength":7176,
			"byteOffset":158848,
			"target":34963
		},
		{
			"buffer":0,
			"byteLength":1176,
			"byteOffset":166024,
			"target":34962
		},
		{
			"buffer":0,
			"byteLength":1176,
			"byteOffset":167200,
			"target":34962
		},
		{
			"buffer":0,
			"byteLength":784,
			"byteOffset":168376,
			"target":34962
		},
		{
			"buffer":0,
			"byteLength":408,
			"byteOffset":169160,
			"target":34963
		},
		{
			"buffer":0,
			"byteLength":2712,
			"byteOffset":169568,
			"target":34962
		},
		{
			"buffer":0,
			"byteLength":2712,
			"byteOffset":172280,
			"target":34962
		},
		{
			"buffer":0,
			"byteLength":1808,
			"byteOffset":174992,
			"target":34962
		},
		{
			"buffer":0,
			"byteLength":960,
			"byteOffset":176800,
			"target":34963
		},
		{
			"buffer":0,
			"byteLength":53232,
			"byteOffset":177760,
			"target":34962
		},
		{
			"buffer":0,
			"byteLength":53232,
			"byteOffset":230992,
			"target":34962
		},
		{
			"buffer":0,
			"byteLength":35488,
			"byteOffset":284224,
			"target":34962
		},
		{
			"buffer":0,
			"byteLength":50688,
			"byteOffset":319712,
			"target":34963
		},
		{
			"buffer":0,
			"byteLength":25920,
			"byteOffset":370400,
			"target":34962
		},
		{
			"buffer":0,
			"byteLength":25920,
			"byteOffset":396320,
			"target":34962
		},
		{
			"buffer":0,
			"byteLength":17280,
			"byteOffset":422240,
			"target":34962
		},
		{
			"buffer":0,
			"byteLength":25344,
			"byteOffset":439520,
			"target":34963
		},
		{
			"buffer":0,
			"byteLength":25920,
			"byteOffset":464864,
			"target":34962
		},
		{
			"buffer":0,
			"byteLength":25920,
			"byteOffset":490784,
			"target":34962
		},
		{
			"buffer":0,
			"byteLength":17280,
			"byteOffset":516704,
			"target":34962
		}
	],
	"samplers":[
		{
			"magFilter":9729,
			"minFilter":9987
		}
	],
	"buffers":[
		{
			"byteLength":533984,
			"uri":"TugBoat.bin"
		}
	]
}
