{
	"asset":{
		"generator":"Khronos glTF Blender I/O v4.5.48",
		"version":"2.0"
	},
	"scene":0,
	"scenes":[
		{
			"name":"Water",
			"nodes":[
				0
			]
		}
	],
	"nodes":[
		{
			"mesh":0,
			"name":"Water"
		}
	],
	"materials":[
		{
			"alphaMode":"BLEND",
			"doubleSided":true,
			"name":"wind_waker_water",
			"pbrMetallicRoughness":{
				"baseColorFactor":[
					0.800000011920929,
					0.800000011920929,
					0.800000011920929,
					0.0714285746216774
				],
				"metallicFactor":0,
				"roughnessFactor":0.5
			}
		}
	],
	"meshes":[
		{
			"name":"Cube.003",
			"primitives":[
				{
					"attributes":{
						"POSITION":0,
						"NORMAL":1,
						"TEXCOORD_0":2
					},
					"indices":3,
					"material":0
				}
			]
		}
	],
	"accessors":[
		{
			"bufferView":0,
			"componentType":5126,
			"count":98304,
			"max":[
				101.99439239501953,
				101.99439239501953,
				101.99439239501953
			],
			"min":[
				-101.99439239501953,
				-101.99439239501953,
				-101.99439239501953
			],
			"type":"VEC3"
		},
		{
			"bufferView":1,
			"componentType":5126,
			"count":98304,
			"type":"VEC3"
		},
		{
			"bufferView":2,
			"componentType":5126,
			"count":98304,
			"type":"VEC2"
		},
		{
			"bufferView":3,
			"componentType":5125,
			"count":147456,
			"type":"SCALAR"
		}
	],
	"bufferViews":[
		{
			"buffer":0,
			"byteLength":1179648,
			"byteOffset":0,
			"target":34962
		},
		{
			"buffer":0,
			"byteLength":1179648,
			"byteOffset":1179648,
			"target":34962
		},
		{
			"buffer":0,
			"byteLength":786432,
			"byteOffset":2359296,
			"target":34962
		},
		{
			"buffer":0,
			"byteLength":589824,
			"byteOffset":3145728,
			"target":34963
		}
	],
	"buffers":[
		{
			"byteLength":3735552,
			"uri":"Water.bin"
		}
	]
}
